<svg width="665" height="381" viewBox="0 0 665 381" fill="none" xmlns="http://www.w3.org/2000/svg">
<path d="M218.84 143.92L229.52 143.68C231.12 143.68 231.92 144.24 231.92 145.36C231.92 145.92 231.68 146.36 231.2 146.68C230.8 147 230.16 147.4 229.28 147.88C228.4 148.36 227.68 148.88 227.12 149.44C226.64 149.92 226.24 150.36 225.92 150.76C225.68 151.16 225.4 151.68 225.08 152.32C224.76 152.88 224.52 153.36 224.36 153.76C223.8 154.8 218.36 167 208.04 190.36C197.72 213.64 192 226.44 190.88 228.76C189.76 231.08 188.88 232.24 188.24 232.24C187.44 232.24 185.6 228.68 182.72 221.56C181.92 219.8 180.84 217.36 179.48 214.24C178.2 211.12 177.08 208.48 176.12 206.32C175.24 204.16 174.32 201.96 173.36 199.72C171.44 195.16 170.2 192.88 169.64 192.88C168.84 192.88 166.12 198.4 161.48 209.44C156.92 220.48 154.52 226.4 154.28 227.2C154.12 228 153.96 228.56 153.8 228.88C153.72 229.2 153.64 229.48 153.56 229.72C153.48 229.96 153.4 230.2 153.32 230.44C153.24 230.68 153.16 230.88 153.08 231.04C153 231.2 152.92 231.36 152.84 231.52C152.84 231.68 152.8 231.8 152.72 231.88C152.64 232.04 152.56 232.16 152.48 232.24C152.4 232.32 152.32 232.36 152.24 232.36C152 232.52 151.8 232.6 151.64 232.6C150.92 232.6 150.04 231.44 149 229.12C147.96 226.88 146.08 222.44 143.36 215.8C140.64 209.08 137.4 201.64 133.64 193.48C129.96 185.32 125.52 174.84 120.32 162.04C118.8 158.2 117.16 155.2 115.4 153.04C113.64 150.8 112.08 149.4 110.72 148.84C109.36 148.28 108.12 147.96 107 147.88C105.88 147.8 105 147.64 104.36 147.4C103.72 147.16 103.4 146.52 103.4 145.48C103.4 144.44 104.48 143.92 106.64 143.92L119.84 144.28L130.16 143.92C130.88 143.92 131.32 144.04 131.48 144.28C131.72 144.44 131.84 144.8 131.84 145.36C131.84 145.84 130.96 146.52 129.2 147.4C127.52 148.28 126.68 149.48 126.68 151C126.68 152.6 127.88 156 130.28 161.2C138.28 179.12 143.52 191.04 146 196.96C148.56 202.88 150.24 206.76 151.04 208.6C152.64 212.12 153.68 213.88 154.16 213.88C154.48 213.88 155.76 211.4 158 206.44C160.24 201.48 161.88 197.72 162.92 195.16C163.96 192.6 164.68 190.88 165.08 190C165.96 188.32 166.4 187 166.4 186.04C166.4 185 164 179.08 159.2 168.28C153.92 156.6 150.52 150.16 149 148.96C147.72 148 146.68 147.52 145.88 147.52L144.56 147.4C142.32 147.16 140.96 146.96 140.48 146.8C140 146.56 139.76 146.12 139.76 145.48C139.76 144.36 140.92 143.8 143.24 143.8L156.44 144.28L164.36 143.8C166.76 143.8 167.96 144.08 167.96 144.64C167.96 145.2 167.52 145.72 166.64 146.2C164.08 147.56 162.8 149.08 162.8 150.76C162.8 152.36 164.04 155.96 166.52 161.56C166.68 161.88 167.24 163.2 168.2 165.52C170.28 170.96 171.6 173.68 172.16 173.68C172.8 173.68 174.4 170.2 176.96 163.24C179.52 156.2 180.8 152 180.8 150.64C180.8 149.28 180.2 148.32 179 147.76C177.8 147.12 176.6 146.68 175.4 146.44C174.2 146.12 173.6 145.64 173.6 145C173.6 144.12 174.48 143.68 176.24 143.68L183.92 143.92H185.96C187.08 143.92 189.2 143.8 192.32 143.56H193.4C194.44 143.56 194.96 143.96 194.96 144.76C194.96 145.56 194.2 146.2 192.68 146.68C191.16 147.16 189.92 147.88 188.96 148.84C188.08 149.72 186.96 151.8 185.6 155.08C184.32 158.28 182.48 162.64 180.08 168.16C177.76 173.68 176.4 177 176 178.12C175.6 179.24 175.4 180.2 175.4 181C175.4 181.72 177.84 187.52 182.72 198.4C187.6 209.28 190.48 214.72 191.36 214.72C192.32 214.72 196.96 204.64 205.28 184.48C213.68 164.24 217.88 153.32 217.88 151.72C217.88 150.04 217.4 148.88 216.44 148.24C215.56 147.52 214.56 147.08 213.44 146.92C210.48 146.68 209 146.04 209 145C209 144.44 209.12 144.12 209.36 144.04C209.6 143.88 210.24 143.8 211.28 143.8L218.84 143.92Z" fill="#E2F6F6"/>
<path d="M313.68 142.84C314.72 142.84 317.96 143 323.4 143.32C328.92 143.64 339.72 143.8 355.8 143.8C371.88 143.8 381.6 143.56 384.96 143.08C385.84 143.08 386.44 143.32 386.76 143.8C387.08 144.28 387.24 144.72 387.24 145.12L387.96 154.84C387.96 156.84 387.84 158.12 387.6 158.68C387.36 159.16 386.84 159.4 386.04 159.4C385.4 159.4 384.84 158.6 384.36 157C383.96 155.32 383.52 154.04 383.04 153.16C381.84 151.08 378.36 150.04 372.6 150.04H357C355.08 150.04 353.88 150.44 353.4 151.24C353 151.96 352.8 154.12 352.8 157.72V163.6L352.44 207.52L352.32 215.32C352.32 218.76 352.84 221 353.88 222.04C355 223.08 356.2 223.88 357.48 224.44C358.76 224.92 359.84 225.2 360.72 225.28C362.96 225.44 364.08 226.16 364.08 227.44C364.08 228.32 363.88 228.88 363.48 229.12C363.08 229.36 362.32 229.48 361.2 229.48L347.88 228.52L335.64 229.36C332.68 229.36 331.2 228.72 331.2 227.44C331.2 226.64 331.44 226.12 331.92 225.88C332.4 225.56 333.32 225.32 334.68 225.16C336.12 224.92 337.04 224.76 337.44 224.68C340.16 224.04 341.68 222.44 342 219.88C342.8 212.84 343.2 197.72 343.2 174.52L343.08 153.04C343.08 151.52 342.64 150.6 341.76 150.28C340.88 149.88 337.96 149.68 333 149.68C328.04 149.68 324.12 149.84 321.24 150.16C318.44 150.48 316.8 150.8 316.32 151.12C315.84 151.36 315.24 151.92 314.52 152.8C313.88 153.68 313.32 154.72 312.84 155.92C312.44 157.04 312.16 157.96 312 158.68C311.76 160.52 311 161.44 309.72 161.44C308.84 161.44 308.4 160.76 308.4 159.4C308.4 156.2 308.6 153.32 309 150.76C309.4 148.12 309.6 146.6 309.6 146.2C309.68 145.8 309.72 145.56 309.72 145.48C309.8 145.32 309.84 145.12 309.84 144.88C309.92 144.56 310 144.36 310.08 144.28C310.16 144.12 310.24 143.96 310.32 143.8C310.48 143.56 310.64 143.4 310.8 143.32C310.96 143.24 311.16 143.16 311.4 143.08C311.88 142.92 312.64 142.84 313.68 142.84ZM405.255 190C405.255 181.36 406.935 173.56 410.295 166.6C413.655 159.64 418.815 154.04 425.775 149.8C432.815 145.48 441.135 143.32 450.735 143.32C455.615 143.32 460.535 144.04 465.495 145.48C470.455 146.92 474.415 148.36 477.375 149.8L481.815 152.08C482.055 152.08 482.455 151.88 483.015 151.48C483.575 151.08 484.015 150.88 484.335 150.88C484.735 150.88 485.135 151.04 485.535 151.36C485.935 151.68 486.135 152.6 486.135 154.12C486.215 155.56 486.375 157.6 486.615 160.24C486.935 162.8 487.215 164.92 487.455 166.6C487.695 168.28 487.815 169.28 487.815 169.6C487.815 171.04 487.335 171.76 486.375 171.76C485.655 171.76 484.975 171.2 484.335 170.08C476.575 155.52 465.375 148.24 450.735 148.24C440.735 148.24 432.535 151.44 426.135 157.84C419.735 164.24 416.535 172.6 416.535 182.92C416.535 194.44 419.495 204.28 425.415 212.44C428.455 216.6 432.615 219.88 437.895 222.28C443.175 224.68 449.335 225.88 456.375 225.88C467.895 225.88 477.575 219.88 485.415 207.88C485.735 207.32 486.335 207.04 487.215 207.04C487.935 207.04 488.295 207.56 488.295 208.6C488.295 209.56 488.135 210.8 487.815 212.32C487.575 213.76 487.255 215.4 486.855 217.24C486.455 219 486.215 220.08 486.135 220.48C485.975 221.36 485.335 222.08 484.215 222.64C479.895 224.72 476.535 226.28 474.135 227.32C467.735 230.04 460.895 231.4 453.615 231.4C446.415 231.4 440.015 230.56 434.415 228.88C428.815 227.2 424.215 225 420.615 222.28C417.095 219.56 414.135 216.36 411.735 212.68C407.415 206.2 405.255 198.64 405.255 190ZM520.892 180.76L521.012 167.8C521.012 161.72 520.772 156.96 520.292 153.52C520.052 151.52 518.972 149.96 517.052 148.84C515.212 147.72 513.572 147.16 512.132 147.16C510.772 147.16 509.852 146.92 509.372 146.44C508.972 145.88 508.772 145.44 508.772 145.12C508.772 144.24 509.892 143.8 512.132 143.8L525.692 144.28L536.252 144.04C538.012 144.04 538.892 144.6 538.892 145.72C538.892 147.08 537.492 147.76 534.692 147.76C533.092 147.76 531.932 149.4 531.212 152.68C530.492 155.96 530.132 159.32 530.132 162.76V167.2L529.892 178.24C529.892 180.24 530.132 181.52 530.612 182.08C531.092 182.64 532.212 182.92 533.972 182.92L553.652 182.8C553.652 182.8 561.212 182.88 576.332 183.04C577.212 183.04 577.652 177.48 577.652 166.36V159.88C577.652 153.88 576.452 150.2 574.052 148.84C573.092 148.28 572.092 147.92 571.052 147.76C570.092 147.6 569.252 147.4 568.532 147.16C567.892 146.84 567.572 146.28 567.572 145.48C567.572 144.68 569.132 144.28 572.252 144.28L583.892 144.52L593.252 144.28C595.092 144.28 596.012 144.8 596.012 145.84C596.012 146.88 595.452 147.4 594.332 147.4C592.092 147.4 590.372 148.08 589.172 149.44C588.052 150.8 587.492 152.6 587.492 154.84L586.892 202V206.44L587.372 217.48C587.372 222.68 590.732 225.64 597.452 226.36C598.412 226.36 598.892 226.8 598.892 227.68C598.892 228.24 598.492 228.6 597.692 228.76C596.892 228.92 595.332 229 593.012 229L583.772 228.4L572.492 229H570.452C569.332 229 568.652 228.84 568.412 228.52C568.252 228.2 568.172 227.84 568.172 227.44C568.172 226.96 568.572 226.52 569.372 226.12C570.172 225.72 571.052 225.4 572.012 225.16C572.972 224.92 573.892 224.44 574.772 223.72C576.452 222.52 577.292 218.76 577.292 212.44L577.652 191.2C577.652 190 577.172 189.16 576.212 188.68C575.252 188.2 573.692 187.96 571.532 187.96C569.372 187.96 566.132 188.04 561.812 188.2L555.332 188.32L533.252 187.96C532.052 187.96 531.252 188.2 530.852 188.68C530.452 189.16 530.252 190.4 530.252 192.4L529.772 207.16V212.32C529.772 215.76 530.092 218.32 530.732 220C531.372 221.68 532.932 223.32 535.412 224.92C536.052 225.32 537.212 225.52 538.892 225.52C541.532 225.52 542.852 225.96 542.852 226.84C542.852 228.28 541.572 229 539.012 229L529.052 228.52L516.092 229.12C512.332 229.12 510.452 228.52 510.452 227.32C510.452 226.2 511.692 225.48 514.172 225.16C515.132 225.08 516.132 224.6 517.172 223.72C518.212 222.76 518.892 221.52 519.212 220C519.532 218.4 519.892 214.16 520.292 207.28C520.692 200.4 520.892 193.84 520.892 187.6V180.76Z" fill="#E2F6F6"/>
<path fill-rule="evenodd" clip-rule="evenodd" d="M375.868 241C349.092 272.22 309.356 292 265 292C225.587 292 189.822 276.383 163.555 251L0 251V241H97L154.132 241L168.141 241C192.762 266.1 227.062 281.671 265 281.671C302.938 281.671 337.238 266.1 361.859 241H375.868ZM453 123H665V113H407.255C392.297 48.261 334.285 0 265 0C195.715 0 137.703 48.261 122.745 113L31 113V123H97L120.801 123L131.27 123C142.195 59.025 197.911 10.3286 265 10.3286C332.09 10.3286 387.805 59.025 398.73 123H409.199H453ZM277 146C277 149.808 275.226 153.202 272.46 155.4L293.5 208L265 167L220.5 252.5L257.573 155.426C254.788 153.229 253 149.823 253 146C253 139.373 258.373 134 265 134C271.627 134 277 139.373 277 146ZM258.462 146C258.462 149.611 261.389 152.538 265 152.538C268.611 152.538 271.538 149.611 271.538 146C271.538 142.389 268.611 139.462 265 139.462C261.389 139.462 258.462 142.389 258.462 146ZM265 237.953C266.105 237.953 267 238.849 267 239.953V266C267 267.104 266.105 268 265 268C263.895 268 263 267.104 263 266V239.953C263 238.849 263.895 237.953 265 237.953ZM267 26C267 24.8954 266.105 24 265 24C263.895 24 263 24.8954 263 26V52.0465C263 53.1511 263.895 54.0465 265 54.0465C266.105 54.0465 267 53.1511 267 52.0465V26ZM326 40.3451C326.957 40.8974 327.284 42.1206 326.732 43.0771L313.709 65.6341C313.156 66.5907 311.933 66.9184 310.977 66.3661C310.02 65.8139 309.692 64.5907 310.245 63.6341L323.268 41.0771C323.82 40.1206 325.043 39.7928 326 40.3451ZM206.732 41.0771C206.18 40.1206 204.957 39.7928 204 40.3451C203.043 40.8974 202.716 42.1206 203.268 43.0771L216.291 65.6341C216.843 66.5907 218.067 66.9184 219.023 66.3661C219.98 65.8139 220.308 64.5907 219.755 63.6341L206.732 41.0771Z" fill="#E2F6F6"/>
<path d="M390.06 292L390.24 291.04L396.54 290.32H397.8L403.92 291.04L403.74 292H390.06ZM394.86 292L398.94 270.34C399.5 267.26 400.04 264.18 400.56 261.1C401.08 257.98 401.58 254.88 402.06 251.8H406.32L402.24 273.52C401.68 276.6 401.14 279.68 400.62 282.76C400.1 285.84 399.6 288.92 399.12 292H394.86ZM396.96 252.76L397.14 251.8H411.12L410.94 252.76L404.58 253.48H403.26L396.96 252.76ZM399.36 279.88L398.94 277.66H399.84L400.68 276.76L424.26 251.8H426.18L399.36 279.88ZM416.64 292L408.06 269.8L410.94 266.74L421.08 292H416.64ZM411.78 292L411.96 291.04L417.84 290.32H419.16L424.14 291.04L423.9 292H411.78ZM417.42 252.76L417.6 251.8H430.02L429.84 252.76L424.44 253.48H422.82L417.42 252.76ZM431.365 292L431.545 291.04L437.545 290.32H439.045L445.405 291.04L445.225 292H431.365ZM436.105 292L440.185 270.46C440.745 267.38 441.285 264.28 441.805 261.16C442.325 258 442.825 254.88 443.305 251.8H447.565L443.485 273.52C442.925 276.6 442.385 279.68 441.865 282.76C441.345 285.84 440.845 288.92 440.365 292H436.105ZM438.205 252.76L438.385 251.8H446.065V253.48H444.505L438.205 252.76ZM460.405 292.48C459.245 292.48 458.345 292.36 457.705 292.12C457.065 291.88 456.565 291.48 456.205 290.92C455.845 290.32 455.525 289.54 455.245 288.58L452.485 279.1C452.045 277.54 451.545 276.36 450.985 275.56C450.465 274.72 449.745 274.16 448.825 273.88C447.945 273.56 446.725 273.4 445.165 273.4H440.845L441.145 271.96H447.685C450.005 271.96 451.985 271.46 453.625 270.46C455.265 269.42 456.525 268.02 457.405 266.26C458.325 264.5 458.785 262.54 458.785 260.38C458.785 258.14 458.185 256.4 456.985 255.16C455.825 253.88 454.005 253.24 451.525 253.24H444.325L444.625 251.8H451.585C455.145 251.8 457.925 252.6 459.925 254.2C461.925 255.76 462.925 257.86 462.925 260.5C462.925 261.98 462.605 263.44 461.965 264.88C461.365 266.32 460.445 267.64 459.205 268.84C458.005 270 456.505 270.96 454.705 271.72C452.945 272.48 450.925 272.94 448.645 273.1V272.62C449.845 272.74 450.865 272.96 451.705 273.28C452.545 273.56 453.265 274 453.865 274.6C454.505 275.16 455.045 275.9 455.485 276.82C455.965 277.74 456.425 278.84 456.865 280.12L460.525 291.04L458.545 290.38L464.365 291.04L464.185 292C463.825 292.08 463.465 292.16 463.105 292.24C462.745 292.32 462.345 292.38 461.905 292.42C461.505 292.46 461.005 292.48 460.405 292.48ZM467.761 292L467.941 291.04L472.681 290.44H473.881L479.221 291.04L479.041 292H467.761ZM471.661 292L492.061 251.32H493.261L499.081 292H494.881L490.321 257.38H490.561L490.441 257.56L473.461 292H471.661ZM480.121 277.66V276.22H495.001V277.66H480.121ZM489.061 292L489.241 291.04L495.841 290.32H497.881L502.801 291.04L502.621 292H489.061ZM509.696 292L509.936 291.04L515.996 290.32H517.736L524.156 291.04L523.916 292H509.696ZM514.436 292L518.516 270.34C519.076 267.26 519.616 264.18 520.136 261.1C520.656 257.98 521.156 254.88 521.636 251.8H525.896L521.816 273.52C521.256 276.6 520.716 279.68 520.196 282.76C519.676 285.84 519.176 288.92 518.696 292H514.436ZM516.536 252.76L516.716 251.8H524.756L524.456 253.48H522.836L516.536 252.76ZM519.776 272.2L520.076 270.76H531.056L530.816 272.2H519.776ZM523.256 253.24L523.496 251.8H541.616L540.416 262.54H539.456L537.596 252.52L539.756 253.24H523.256ZM530.756 278.08L530.036 272.08L530.276 270.88L533.216 264.88H534.176L531.776 278.08H530.756ZM548.927 263.08L551.387 251.8H580.427L579.467 263.08H578.507L576.407 252.52L578.627 253.24H552.767L555.407 252.52L549.947 263.08H548.927ZM551.087 292L551.267 291.04L558.347 290.32H559.667L566.507 291.04L566.327 292H551.087ZM556.547 292L560.627 270.34C561.187 267.26 561.727 264.18 562.247 261.1C562.767 257.98 563.267 254.88 563.747 251.8H568.007L563.927 273.52C563.367 276.6 562.827 279.68 562.307 282.76C561.787 285.84 561.287 288.92 560.807 292H556.547Z" fill="#E2F6F6"/>
<path d="M67.1133 338.844L64.8477 339.039C64.3008 339.078 63.9622 339.345 63.832 339.84L59.7109 361.363C59.6198 361.832 59.8867 362.086 60.5117 362.125L62.7578 362.32V364H52.3672V362.32L54.7109 362.125C55.2839 362.073 55.6094 361.819 55.6875 361.363L59.5547 341.07L46.7227 364H44.3203L40.3164 341.285L36.6055 361.363C36.5664 361.559 36.599 361.728 36.7031 361.871C36.8073 362.014 37.0286 362.099 37.3672 362.125L39.5938 362.32V364H30.4336V362.32L32.7188 362.125C33.2656 362.086 33.5977 361.832 33.7148 361.363L37.8359 339.84C37.875 339.618 37.8424 339.436 37.7383 339.293C37.6341 339.137 37.3997 339.052 37.0352 339.039L34.8086 338.844V337.164H43.7539V338.277L47.1914 357.633L57.875 338.473V337.164H67.1133V338.844ZM89.4148 362.926C89.2065 363.017 88.7833 363.193 88.1453 363.453C87.5073 363.701 86.8237 363.935 86.0945 364.156C85.3654 364.378 84.7404 364.488 84.2195 364.488C83.256 364.488 82.5724 364.254 82.1688 363.785C81.7781 363.303 81.5372 362.626 81.4461 361.754C80.8471 362.314 80.0464 362.913 79.0438 363.551C78.0542 364.176 76.9604 364.488 75.7625 364.488C74.5906 364.488 73.6271 364.254 72.8719 363.785C72.1167 363.316 71.5242 362.717 71.0945 361.988C70.6779 361.246 70.3849 360.465 70.2156 359.645C70.0594 358.811 69.9813 358.036 69.9813 357.32C69.9813 355.771 70.2286 354.228 70.7234 352.691C71.2182 351.142 71.9539 349.729 72.9305 348.453C73.907 347.177 75.1049 346.155 76.5242 345.387C77.9565 344.618 79.6102 344.234 81.4852 344.234C82.2273 344.234 82.924 344.384 83.575 344.684C84.226 344.983 84.7339 345.315 85.0984 345.68L85.6844 344.723H88.4188C88.2885 345.022 88.1388 345.426 87.9695 345.934C87.8003 346.441 87.6961 346.799 87.657 347.008C87.5398 347.424 87.3771 348.089 87.1688 349C86.9604 349.911 86.7326 350.94 86.4852 352.086C86.2508 353.219 86.0229 354.345 85.8016 355.465C85.5932 356.585 85.4174 357.581 85.2742 358.453C85.131 359.326 85.0594 359.938 85.0594 360.289C85.0594 360.979 85.2091 361.461 85.5086 361.734C85.8081 361.995 86.2313 362.125 86.7781 362.125C86.9604 362.125 87.2339 362.079 87.5984 361.988C87.963 361.884 88.3211 361.78 88.6727 361.676C89.0372 361.572 89.2846 361.507 89.4148 361.48V362.926ZM83.5359 348.316C83.549 348.225 83.4643 348.004 83.282 347.652C83.0997 347.301 82.8914 346.969 82.657 346.656C82.4227 346.331 82.2208 346.168 82.0516 346.168C80.5281 346.168 79.2456 346.526 78.2039 347.242C77.1622 347.945 76.3289 348.857 75.7039 349.977C75.0789 351.096 74.6232 352.288 74.3367 353.551C74.0633 354.801 73.9266 355.979 73.9266 357.086C73.9266 357.828 74.0112 358.564 74.1805 359.293C74.3497 360.022 74.6557 360.628 75.0984 361.109C75.5542 361.591 76.1922 361.832 77.0125 361.832C77.6375 361.832 78.256 361.669 78.868 361.344C79.4799 361.005 80.0138 360.634 80.4695 360.23C80.9383 359.827 81.2638 359.534 81.4461 359.352L83.5359 348.316ZM109.119 346.93C109.119 347.867 108.793 348.453 108.142 348.688C107.491 348.922 106.625 349.039 105.545 349.039L104.588 347.125C104.106 347.333 103.578 347.691 103.005 348.199C102.446 348.707 101.905 349.299 101.384 349.977C100.877 350.641 100.434 351.318 100.056 352.008C99.6786 352.698 99.4313 353.336 99.3141 353.922L97.2242 364H93.5133L96.9508 347.008L93.5914 346.637V345.484L99.6266 344.234H101.228L100.388 348.277C101.209 347.014 102.14 346.025 103.181 345.309C104.236 344.592 105.362 344.234 106.56 344.234C107.198 344.234 107.699 344.384 108.064 344.684C108.442 344.983 108.709 345.341 108.865 345.758C109.034 346.174 109.119 346.565 109.119 346.93ZM130.795 363.082C130.353 363.303 129.825 363.525 129.213 363.746C128.601 363.967 127.989 364.143 127.377 364.273C126.778 364.417 126.264 364.488 125.834 364.488C125.196 364.488 124.578 364.293 123.979 363.902C123.393 363.512 122.944 363.076 122.631 362.594C122.358 362.177 122.032 361.598 121.655 360.855C121.277 360.113 120.886 359.319 120.483 358.473C120.092 357.613 119.728 356.806 119.389 356.051C119.051 355.283 118.784 354.677 118.588 354.234L116.752 355.875L115.112 364H111.44L116.752 337.281L113.237 336.93V335.719L119.428 334.527H121.03L117.319 353.121L123.784 346.441C124.552 345.66 125.203 345.1 125.737 344.762C126.271 344.41 126.889 344.234 127.592 344.234C128.491 344.234 129.148 344.475 129.565 344.957C129.982 345.426 130.19 345.908 130.19 346.402C130.19 346.858 129.975 347.333 129.545 347.828C129.129 348.31 128.452 348.714 127.514 349.039L126.147 347.594C125.418 348.154 124.597 348.831 123.686 349.625C122.774 350.406 122.013 351.077 121.401 351.637C121.713 352.34 122.117 353.31 122.612 354.547C123.107 355.784 123.634 356.949 124.194 358.043C124.767 359.15 125.418 360.139 126.147 361.012C126.889 361.884 127.612 362.32 128.315 362.32C128.601 362.32 128.998 362.262 129.506 362.145C130.027 362.027 130.457 361.884 130.795 361.715V363.082ZM144.816 338.355C144.816 338.941 144.601 339.462 144.171 339.918C143.754 340.374 143.162 340.602 142.394 340.602C141.573 340.602 140.955 340.387 140.538 339.957C140.122 339.514 139.913 338.98 139.913 338.355C139.913 337.835 140.135 337.333 140.577 336.852C141.02 336.37 141.639 336.129 142.433 336.129C143.188 336.129 143.774 336.363 144.191 336.832C144.607 337.288 144.816 337.796 144.816 338.355ZM144.991 362.848C144.796 362.939 144.366 363.121 143.702 363.395C143.051 363.655 142.309 363.902 141.476 364.137C140.655 364.371 139.881 364.488 139.152 364.488C138.24 364.488 137.563 364.293 137.12 363.902C136.691 363.499 136.43 362.997 136.339 362.398C136.248 361.786 136.261 361.174 136.378 360.562L138.937 347.008L135.499 346.637V345.484L141.534 344.234H143.175L140.148 360.23C140.057 360.777 140.154 361.259 140.441 361.676C140.74 362.079 141.163 362.281 141.71 362.281C142.023 362.281 142.4 362.216 142.843 362.086C143.286 361.943 143.709 361.793 144.113 361.637C144.529 361.48 144.822 361.376 144.991 361.324V362.848ZM169.402 363.199C169.181 363.277 168.745 363.421 168.094 363.629C167.456 363.837 166.759 364.033 166.004 364.215C165.262 364.397 164.611 364.488 164.051 364.488C163.816 364.488 163.497 364.462 163.094 364.41C162.69 364.371 162.293 364.273 161.902 364.117C161.512 363.961 161.199 363.727 160.965 363.414C160.743 363.089 160.691 362.659 160.809 362.125L163.25 349.84C163.38 349.124 163.354 348.57 163.172 348.18C162.99 347.776 162.736 347.496 162.41 347.34C162.098 347.171 161.792 347.086 161.492 347.086C161.062 347.086 160.503 347.249 159.812 347.574C159.135 347.887 158.432 348.31 157.703 348.844C156.974 349.365 156.316 349.938 155.73 350.562L152.977 364H149.246L152.723 347.008L149.363 346.637V345.484L155.398 344.234H157L156.258 347.965C156.844 347.366 157.54 346.78 158.348 346.207C159.168 345.634 160.04 345.165 160.965 344.801C161.889 344.423 162.794 344.234 163.68 344.234C165.151 344.234 166.193 344.638 166.805 345.445C167.417 346.253 167.566 347.555 167.254 349.352L165.125 360.641C165.034 361.148 165.099 361.526 165.32 361.773C165.555 362.008 165.828 362.158 166.141 362.223C166.453 362.288 166.688 362.32 166.844 362.32C167.208 362.32 167.605 362.268 168.035 362.164C168.465 362.06 168.908 361.936 169.363 361.793L169.402 363.199ZM192.134 347.164H188.462C188.579 347.464 188.69 347.854 188.794 348.336C188.911 348.805 188.97 349.306 188.97 349.84C188.97 351.533 188.566 352.945 187.759 354.078C186.964 355.211 185.91 356.064 184.595 356.637C183.279 357.197 181.847 357.477 180.298 357.477C180.128 357.88 179.998 358.329 179.907 358.824C179.816 359.306 179.803 359.658 179.868 359.879L185.22 362.32C186.443 362.88 187.427 363.46 188.169 364.059C188.924 364.671 189.302 365.556 189.302 366.715C189.302 367.574 189.015 368.388 188.442 369.156C187.882 369.938 187.114 370.628 186.137 371.227C185.174 371.826 184.093 372.294 182.895 372.633C181.697 372.984 180.46 373.16 179.184 373.16C177.44 373.16 175.994 372.88 174.848 372.32C173.716 371.773 172.876 371.057 172.329 370.172C171.782 369.286 171.509 368.336 171.509 367.32C171.509 365.966 172.029 364.827 173.071 363.902C174.113 362.978 175.363 362.275 176.821 361.793C176.743 361.376 176.762 360.875 176.88 360.289C176.997 359.69 177.186 359.104 177.446 358.531C177.707 357.945 178.019 357.477 178.384 357.125C177.316 356.669 176.424 356.051 175.708 355.27C175.005 354.475 174.653 353.44 174.653 352.164C174.653 350.862 174.972 349.605 175.61 348.395C176.261 347.184 177.186 346.188 178.384 345.406C179.595 344.625 181.046 344.234 182.739 344.234C183.703 344.234 184.542 344.378 185.259 344.664C185.975 344.938 186.457 345.146 186.704 345.289H192.134V347.164ZM185.141 349.645C185.141 348.655 184.953 347.789 184.575 347.047C184.21 346.292 183.624 345.914 182.817 345.914C182.179 345.914 181.528 346.22 180.864 346.832C180.2 347.431 179.64 348.245 179.184 349.273C178.729 350.289 178.501 351.422 178.501 352.672C178.501 353.635 178.703 354.43 179.106 355.055C179.523 355.68 180.083 355.992 180.786 355.992C181.45 355.992 182.049 355.784 182.583 355.367C183.13 354.951 183.592 354.417 183.97 353.766C184.347 353.115 184.634 352.424 184.829 351.695C185.037 350.953 185.141 350.27 185.141 349.645ZM185.571 367.516C185.571 367.034 185.428 366.591 185.141 366.188C184.855 365.784 184.321 365.4 183.54 365.035L178.54 362.77C177.264 363.082 176.398 363.603 175.942 364.332C175.486 365.061 175.259 365.829 175.259 366.637C175.259 367.249 175.434 367.919 175.786 368.648C176.151 369.378 176.697 370.003 177.427 370.523C178.156 371.057 179.087 371.324 180.22 371.324C181.509 371.324 182.544 371.096 183.325 370.641C184.106 370.198 184.673 369.677 185.024 369.078C185.389 368.479 185.571 367.958 185.571 367.516ZM222.44 347.242H216.561L214.041 359.801C213.898 360.504 214.074 361.057 214.569 361.461C215.077 361.852 215.669 362.047 216.346 362.047C217.114 362.047 217.896 361.923 218.69 361.676C219.484 361.415 220.09 361.214 220.506 361.07V362.672C220.285 362.763 219.797 362.958 219.041 363.258C218.299 363.557 217.466 363.837 216.541 364.098C215.617 364.358 214.771 364.488 214.002 364.488C212.557 364.488 211.567 364.163 211.034 363.512C210.5 362.848 210.233 362.021 210.233 361.031C210.233 360.771 210.246 360.504 210.272 360.23C210.298 359.957 210.337 359.677 210.389 359.391L212.83 347.242L210.311 347.477V346.168L213.319 344.84L215.272 340.836H217.713L216.913 345.406H222.44V347.242ZM244.546 363.004C244.325 363.082 243.889 363.245 243.238 363.492C242.599 363.727 241.903 363.948 241.148 364.156C240.405 364.378 239.754 364.488 239.195 364.488C238.869 364.488 238.446 364.417 237.925 364.273C237.404 364.143 236.961 363.889 236.597 363.512C236.232 363.134 236.122 362.587 236.265 361.871L238.706 350.074C238.863 349.371 238.81 348.785 238.55 348.316C238.29 347.835 237.958 347.477 237.554 347.242C237.15 346.995 236.799 346.871 236.499 346.871C235.861 346.871 235.002 347.164 233.921 347.75C232.853 348.323 231.877 349.072 230.991 349.996L228.062 364H224.39L229.898 337.281L226.343 336.93V335.719L232.593 334.527H234.195L231.499 347.438C232.32 346.539 233.387 345.784 234.702 345.172C236.03 344.547 237.365 344.234 238.706 344.234C240.178 344.234 241.271 344.684 241.988 345.582C242.717 346.48 242.892 347.835 242.515 349.645L240.308 360.406C240.204 360.914 240.262 361.311 240.484 361.598C240.705 361.871 240.972 362.066 241.284 362.184C241.597 362.301 241.831 362.359 241.988 362.359C242.352 362.359 242.749 362.268 243.179 362.086C243.609 361.891 244.051 361.728 244.507 361.598L244.546 363.004ZM264.523 348.277C264.523 349.371 264.159 350.335 263.43 351.168C262.714 351.988 261.776 352.691 260.617 353.277C259.471 353.85 258.241 354.299 256.926 354.625C255.611 354.938 254.354 355.126 253.156 355.191C253.117 355.452 253.078 355.764 253.039 356.129C253.013 356.493 253 356.799 253 357.047C253 358.505 253.345 359.71 254.035 360.66C254.725 361.611 255.65 362.086 256.809 362.086C257.707 362.086 258.697 361.76 259.777 361.109C260.871 360.445 262.147 359.475 263.605 358.199V360.719C263.111 361.201 262.46 361.734 261.652 362.32C260.845 362.906 259.921 363.414 258.879 363.844C257.837 364.273 256.704 364.488 255.48 364.488C254.868 364.488 254.198 364.391 253.469 364.195C252.74 364 252.043 363.642 251.379 363.121C250.728 362.6 250.188 361.865 249.758 360.914C249.341 359.964 249.133 358.727 249.133 357.203C249.133 355.615 249.406 354.059 249.953 352.535C250.513 350.999 251.281 349.612 252.258 348.375C253.234 347.125 254.354 346.129 255.617 345.387C256.893 344.645 258.247 344.273 259.68 344.273C260.917 344.273 261.887 344.527 262.59 345.035C263.293 345.543 263.788 346.116 264.074 346.754C264.374 347.379 264.523 347.887 264.523 348.277ZM260.969 348.238C260.969 347.717 260.773 347.236 260.383 346.793C259.992 346.35 259.465 346.129 258.801 346.129C258.137 346.129 257.512 346.376 256.926 346.871C256.353 347.353 255.826 347.984 255.344 348.766C254.862 349.547 254.452 350.374 254.113 351.246C253.775 352.105 253.514 352.919 253.332 353.688C254.178 353.609 255.044 353.414 255.93 353.102C256.828 352.789 257.655 352.392 258.41 351.91C259.178 351.415 259.797 350.855 260.266 350.23C260.734 349.605 260.969 348.941 260.969 348.238ZM301.822 351.637C301.822 353.277 301.535 354.866 300.962 356.402C300.39 357.939 299.582 359.312 298.541 360.523C297.512 361.734 296.301 362.698 294.908 363.414C293.515 364.13 292.004 364.488 290.377 364.488C289.778 364.488 289.237 364.404 288.755 364.234C288.274 364.078 287.87 363.922 287.545 363.766L286.275 370.191C286.171 370.673 286.431 370.94 287.056 370.992L289.576 371.207V372.711H279.498V371.207L281.587 370.992C282.134 370.927 282.453 370.66 282.545 370.191L287.056 347.008L283.697 346.637V345.484L289.752 344.234H291.314L290.826 346.715C291.268 346.376 291.802 346.018 292.427 345.641C293.052 345.25 293.723 344.918 294.439 344.645C295.155 344.371 295.871 344.234 296.587 344.234C297.942 344.234 298.996 344.605 299.752 345.348C300.507 346.09 301.041 347.027 301.353 348.16C301.666 349.293 301.822 350.452 301.822 351.637ZM297.857 351.793C297.857 351.012 297.746 350.23 297.525 349.449C297.304 348.655 296.965 347.997 296.509 347.477C296.054 346.943 295.468 346.676 294.752 346.676C294.179 346.676 293.612 346.812 293.052 347.086C292.492 347.359 291.978 347.678 291.509 348.043C291.054 348.408 290.676 348.727 290.377 349L287.994 361.402C288.228 361.559 288.645 361.799 289.244 362.125C289.843 362.438 290.487 362.594 291.177 362.594C292.271 362.594 293.235 362.249 294.068 361.559C294.901 360.868 295.598 359.97 296.158 358.863C296.718 357.757 297.141 356.578 297.427 355.328C297.714 354.078 297.857 352.9 297.857 351.793ZM327.034 362.926C326.825 363.017 326.402 363.193 325.764 363.453C325.126 363.701 324.442 363.935 323.713 364.156C322.984 364.378 322.359 364.488 321.838 364.488C320.875 364.488 320.191 364.254 319.788 363.785C319.397 363.303 319.156 362.626 319.065 361.754C318.466 362.314 317.665 362.913 316.663 363.551C315.673 364.176 314.579 364.488 313.381 364.488C312.209 364.488 311.246 364.254 310.491 363.785C309.735 363.316 309.143 362.717 308.713 361.988C308.297 361.246 308.004 360.465 307.834 359.645C307.678 358.811 307.6 358.036 307.6 357.32C307.6 355.771 307.847 354.228 308.342 352.691C308.837 351.142 309.573 349.729 310.549 348.453C311.526 347.177 312.724 346.155 314.143 345.387C315.575 344.618 317.229 344.234 319.104 344.234C319.846 344.234 320.543 344.384 321.194 344.684C321.845 344.983 322.353 345.315 322.717 345.68L323.303 344.723H326.038C325.907 345.022 325.758 345.426 325.588 345.934C325.419 346.441 325.315 346.799 325.276 347.008C325.159 347.424 324.996 348.089 324.788 349C324.579 349.911 324.351 350.94 324.104 352.086C323.87 353.219 323.642 354.345 323.42 355.465C323.212 356.585 323.036 357.581 322.893 358.453C322.75 359.326 322.678 359.938 322.678 360.289C322.678 360.979 322.828 361.461 323.127 361.734C323.427 361.995 323.85 362.125 324.397 362.125C324.579 362.125 324.853 362.079 325.217 361.988C325.582 361.884 325.94 361.78 326.291 361.676C326.656 361.572 326.903 361.507 327.034 361.48V362.926ZM321.155 348.316C321.168 348.225 321.083 348.004 320.901 347.652C320.718 347.301 320.51 346.969 320.276 346.656C320.041 346.331 319.84 346.168 319.67 346.168C318.147 346.168 316.864 346.526 315.823 347.242C314.781 347.945 313.948 348.857 313.323 349.977C312.698 351.096 312.242 352.288 311.955 353.551C311.682 354.801 311.545 355.979 311.545 357.086C311.545 357.828 311.63 358.564 311.799 359.293C311.968 360.022 312.274 360.628 312.717 361.109C313.173 361.591 313.811 361.832 314.631 361.832C315.256 361.832 315.875 361.669 316.487 361.344C317.099 361.005 317.633 360.634 318.088 360.23C318.557 359.827 318.883 359.534 319.065 359.352L321.155 348.316ZM344.335 346.754C344.335 347.457 344.075 347.984 343.554 348.336C343.033 348.688 342.33 348.896 341.445 348.961L339.667 346.5C339.576 346.448 339.446 346.389 339.277 346.324C339.107 346.246 338.899 346.207 338.652 346.207C338.066 346.207 337.597 346.363 337.245 346.676C336.907 346.988 336.659 347.359 336.503 347.789C336.36 348.219 336.288 348.609 336.288 348.961C336.288 349.677 336.666 350.413 337.421 351.168C338.189 351.91 338.997 352.626 339.843 353.316C340.715 354.02 341.51 354.768 342.226 355.562C342.942 356.344 343.3 357.223 343.3 358.199C343.3 359.293 343.007 360.322 342.421 361.285C341.835 362.236 340.969 363.01 339.823 363.609C338.691 364.195 337.297 364.488 335.644 364.488C333.717 364.488 332.304 364.104 331.405 363.336C330.507 362.555 330.058 361.708 330.058 360.797C330.058 360.159 330.253 359.645 330.644 359.254C331.034 358.85 331.633 358.648 332.441 358.648C332.935 358.648 333.372 358.759 333.749 358.98C334.14 359.189 334.4 359.358 334.53 359.488L333.769 361.441C334.055 361.845 334.407 362.19 334.823 362.477C335.253 362.75 335.806 362.887 336.484 362.887C337.304 362.887 338.027 362.587 338.652 361.988C339.29 361.389 339.609 360.582 339.609 359.566C339.609 358.746 339.303 358.023 338.691 357.398C338.079 356.76 337.291 356.07 336.327 355.328C335.507 354.69 334.758 353.941 334.081 353.082C333.417 352.21 333.085 351.279 333.085 350.289C333.085 348.974 333.456 347.867 334.198 346.969C334.941 346.07 335.865 345.393 336.972 344.938C338.092 344.469 339.198 344.234 340.292 344.234C341.295 344.234 342.089 344.378 342.675 344.664C343.274 344.951 343.697 345.289 343.945 345.68C344.205 346.07 344.335 346.428 344.335 346.754ZM362.34 346.754C362.34 347.457 362.079 347.984 361.559 348.336C361.038 348.688 360.335 348.896 359.449 348.961L357.672 346.5C357.581 346.448 357.451 346.389 357.281 346.324C357.112 346.246 356.904 346.207 356.656 346.207C356.07 346.207 355.602 346.363 355.25 346.676C354.911 346.988 354.664 347.359 354.508 347.789C354.365 348.219 354.293 348.609 354.293 348.961C354.293 349.677 354.671 350.413 355.426 351.168C356.194 351.91 357.001 352.626 357.848 353.316C358.72 354.02 359.514 354.768 360.23 355.562C360.947 356.344 361.305 357.223 361.305 358.199C361.305 359.293 361.012 360.322 360.426 361.285C359.84 362.236 358.974 363.01 357.828 363.609C356.695 364.195 355.302 364.488 353.648 364.488C351.721 364.488 350.309 364.104 349.41 363.336C348.512 362.555 348.062 361.708 348.062 360.797C348.062 360.159 348.258 359.645 348.648 359.254C349.039 358.85 349.638 358.648 350.445 358.648C350.94 358.648 351.376 358.759 351.754 358.98C352.145 359.189 352.405 359.358 352.535 359.488L351.773 361.441C352.06 361.845 352.411 362.19 352.828 362.477C353.258 362.75 353.811 362.887 354.488 362.887C355.309 362.887 356.031 362.587 356.656 361.988C357.294 361.389 357.613 360.582 357.613 359.566C357.613 358.746 357.307 358.023 356.695 357.398C356.083 356.76 355.296 356.07 354.332 355.328C353.512 354.69 352.763 353.941 352.086 353.082C351.422 352.21 351.09 351.279 351.09 350.289C351.09 348.974 351.461 347.867 352.203 346.969C352.945 346.07 353.87 345.393 354.977 344.938C356.096 344.469 357.203 344.234 358.297 344.234C359.299 344.234 360.094 344.378 360.68 344.664C361.279 344.951 361.702 345.289 361.949 345.68C362.21 346.07 362.34 346.428 362.34 346.754ZM387.102 362.926C386.894 363.017 386.471 363.193 385.833 363.453C385.195 363.701 384.511 363.935 383.782 364.156C383.053 364.378 382.428 364.488 381.907 364.488C380.944 364.488 380.26 364.254 379.856 363.785C379.466 363.303 379.225 362.626 379.134 361.754C378.535 362.314 377.734 362.913 376.731 363.551C375.742 364.176 374.648 364.488 373.45 364.488C372.278 364.488 371.315 364.254 370.559 363.785C369.804 363.316 369.212 362.717 368.782 361.988C368.365 361.246 368.072 360.465 367.903 359.645C367.747 358.811 367.669 358.036 367.669 357.32C367.669 355.771 367.916 354.228 368.411 352.691C368.906 351.142 369.641 349.729 370.618 348.453C371.595 347.177 372.792 346.155 374.212 345.387C375.644 344.618 377.298 344.234 379.173 344.234C379.915 344.234 380.611 344.384 381.263 344.684C381.914 344.983 382.421 345.315 382.786 345.68L383.372 344.723H386.106C385.976 345.022 385.826 345.426 385.657 345.934C385.488 346.441 385.384 346.799 385.345 347.008C385.227 347.424 385.065 348.089 384.856 349C384.648 349.911 384.42 350.94 384.173 352.086C383.938 353.219 383.71 354.345 383.489 355.465C383.281 356.585 383.105 357.581 382.962 358.453C382.819 359.326 382.747 359.938 382.747 360.289C382.747 360.979 382.897 361.461 383.196 361.734C383.496 361.995 383.919 362.125 384.466 362.125C384.648 362.125 384.921 362.079 385.286 361.988C385.651 361.884 386.009 361.78 386.36 361.676C386.725 361.572 386.972 361.507 387.102 361.48V362.926ZM381.223 348.316C381.236 348.225 381.152 348.004 380.97 347.652C380.787 347.301 380.579 346.969 380.345 346.656C380.11 346.331 379.908 346.168 379.739 346.168C378.216 346.168 376.933 346.526 375.891 347.242C374.85 347.945 374.016 348.857 373.391 349.977C372.766 351.096 372.311 352.288 372.024 353.551C371.751 354.801 371.614 355.979 371.614 357.086C371.614 357.828 371.699 358.564 371.868 359.293C372.037 360.022 372.343 360.628 372.786 361.109C373.242 361.591 373.88 361.832 374.7 361.832C375.325 361.832 375.944 361.669 376.555 361.344C377.167 361.005 377.701 360.634 378.157 360.23C378.626 359.827 378.951 359.534 379.134 359.352L381.223 348.316ZM409.834 347.164H406.162C406.279 347.464 406.39 347.854 406.494 348.336C406.611 348.805 406.67 349.306 406.67 349.84C406.67 351.533 406.266 352.945 405.459 354.078C404.664 355.211 403.61 356.064 402.295 356.637C400.979 357.197 399.547 357.477 397.998 357.477C397.828 357.88 397.698 358.329 397.607 358.824C397.516 359.306 397.503 359.658 397.568 359.879L402.92 362.32C404.143 362.88 405.127 363.46 405.869 364.059C406.624 364.671 407.002 365.556 407.002 366.715C407.002 367.574 406.715 368.388 406.142 369.156C405.582 369.938 404.814 370.628 403.837 371.227C402.874 371.826 401.793 372.294 400.595 372.633C399.397 372.984 398.16 373.16 396.884 373.16C395.14 373.16 393.694 372.88 392.548 372.32C391.416 371.773 390.576 371.057 390.029 370.172C389.482 369.286 389.209 368.336 389.209 367.32C389.209 365.966 389.729 364.827 390.771 363.902C391.813 362.978 393.063 362.275 394.521 361.793C394.443 361.376 394.462 360.875 394.58 360.289C394.697 359.69 394.886 359.104 395.146 358.531C395.407 357.945 395.719 357.477 396.084 357.125C395.016 356.669 394.124 356.051 393.408 355.27C392.705 354.475 392.353 353.44 392.353 352.164C392.353 350.862 392.672 349.605 393.31 348.395C393.961 347.184 394.886 346.188 396.084 345.406C397.295 344.625 398.746 344.234 400.439 344.234C401.403 344.234 402.242 344.378 402.959 344.664C403.675 344.938 404.157 345.146 404.404 345.289H409.834V347.164ZM402.841 349.645C402.841 348.655 402.653 347.789 402.275 347.047C401.91 346.292 401.324 345.914 400.517 345.914C399.879 345.914 399.228 346.22 398.564 346.832C397.9 347.431 397.34 348.245 396.884 349.273C396.429 350.289 396.201 351.422 396.201 352.672C396.201 353.635 396.403 354.43 396.806 355.055C397.223 355.68 397.783 355.992 398.486 355.992C399.15 355.992 399.749 355.784 400.283 355.367C400.83 354.951 401.292 354.417 401.67 353.766C402.047 353.115 402.334 352.424 402.529 351.695C402.737 350.953 402.841 350.27 402.841 349.645ZM403.271 367.516C403.271 367.034 403.128 366.591 402.841 366.188C402.555 365.784 402.021 365.4 401.24 365.035L396.24 362.77C394.964 363.082 394.098 363.603 393.642 364.332C393.186 365.061 392.959 365.829 392.959 366.637C392.959 367.249 393.134 367.919 393.486 368.648C393.851 369.378 394.397 370.003 395.127 370.523C395.856 371.057 396.787 371.324 397.92 371.324C399.209 371.324 400.244 371.096 401.025 370.641C401.806 370.198 402.373 369.677 402.724 369.078C403.089 368.479 403.271 367.958 403.271 367.516ZM427.936 348.277C427.936 349.371 427.571 350.335 426.842 351.168C426.126 351.988 425.189 352.691 424.03 353.277C422.884 353.85 421.653 354.299 420.338 354.625C419.023 354.938 417.767 355.126 416.569 355.191C416.53 355.452 416.491 355.764 416.452 356.129C416.426 356.493 416.413 356.799 416.413 357.047C416.413 358.505 416.758 359.71 417.448 360.66C418.138 361.611 419.062 362.086 420.221 362.086C421.12 362.086 422.109 361.76 423.19 361.109C424.284 360.445 425.56 359.475 427.018 358.199V360.719C426.523 361.201 425.872 361.734 425.065 362.32C424.258 362.906 423.333 363.414 422.291 363.844C421.25 364.273 420.117 364.488 418.893 364.488C418.281 364.488 417.61 364.391 416.881 364.195C416.152 364 415.455 363.642 414.791 363.121C414.14 362.6 413.6 361.865 413.17 360.914C412.754 359.964 412.545 358.727 412.545 357.203C412.545 355.615 412.819 354.059 413.366 352.535C413.926 350.999 414.694 349.612 415.67 348.375C416.647 347.125 417.767 346.129 419.03 345.387C420.306 344.645 421.66 344.273 423.092 344.273C424.329 344.273 425.299 344.527 426.002 345.035C426.705 345.543 427.2 346.116 427.487 346.754C427.786 347.379 427.936 347.887 427.936 348.277ZM424.381 348.238C424.381 347.717 424.186 347.236 423.795 346.793C423.405 346.35 422.877 346.129 422.213 346.129C421.549 346.129 420.924 346.376 420.338 346.871C419.765 347.353 419.238 347.984 418.756 348.766C418.274 349.547 417.864 350.374 417.526 351.246C417.187 352.105 416.927 352.919 416.745 353.688C417.591 353.609 418.457 353.414 419.342 353.102C420.241 352.789 421.067 352.392 421.823 351.91C422.591 351.415 423.209 350.855 423.678 350.23C424.147 349.605 424.381 348.941 424.381 348.238ZM465.762 352.008C465.762 353.622 465.495 355.178 464.961 356.676C464.44 358.16 463.698 359.495 462.734 360.68C461.784 361.852 460.658 362.783 459.355 363.473C458.066 364.15 456.654 364.488 455.117 364.488C452.917 364.488 451.178 363.811 449.902 362.457C448.626 361.09 447.988 359.247 447.988 356.93C447.988 355.302 448.242 353.733 448.75 352.223C449.271 350.712 450 349.358 450.938 348.16C451.875 346.949 452.995 345.992 454.297 345.289C455.599 344.586 457.031 344.234 458.594 344.234C459.883 344.234 461.068 344.508 462.148 345.055C463.242 345.602 464.115 346.448 464.766 347.594C465.43 348.727 465.762 350.198 465.762 352.008ZM461.719 351.832C461.719 349.931 461.38 348.479 460.703 347.477C460.026 346.461 459.18 345.953 458.164 345.953C457.292 345.953 456.484 346.266 455.742 346.891C455 347.516 454.349 348.349 453.789 349.391C453.242 350.432 452.812 351.591 452.5 352.867C452.188 354.13 452.031 355.413 452.031 356.715C452.031 358.694 452.376 360.185 453.066 361.188C453.757 362.177 454.603 362.672 455.605 362.672C456.556 362.672 457.409 362.34 458.164 361.676C458.919 360.999 459.557 360.12 460.078 359.039C460.612 357.945 461.016 356.767 461.289 355.504C461.576 354.241 461.719 353.017 461.719 351.832ZM487.829 337.008C487.829 337.646 487.595 338.141 487.126 338.492C486.657 338.831 486.052 339.052 485.309 339.156L482.184 336.637C481.768 336.988 481.384 337.561 481.032 338.355C480.694 339.137 480.388 340.003 480.114 340.953C479.854 341.891 479.639 342.796 479.47 343.668C479.3 344.527 479.183 345.211 479.118 345.719H484.001V347.711H478.747C478.695 348.076 478.604 348.74 478.473 349.703C478.343 350.667 478.187 351.786 478.005 353.062C477.822 354.326 477.627 355.621 477.419 356.949C477.223 358.264 477.028 359.475 476.833 360.582C476.651 361.676 476.488 362.522 476.345 363.121C476.071 364.241 475.648 365.387 475.075 366.559C474.502 367.73 473.812 368.818 473.005 369.82C472.21 370.823 471.345 371.63 470.407 372.242C469.47 372.854 468.506 373.16 467.516 373.16C466.839 373.16 466.319 373.017 465.954 372.73C465.589 372.457 465.342 372.158 465.212 371.832C465.069 371.52 464.997 371.298 464.997 371.168C464.997 370.66 465.095 370.263 465.29 369.977C465.485 369.703 465.733 369.456 466.032 369.234L470.114 370.289C470.817 369.417 471.403 368.199 471.872 366.637C472.354 365.074 472.751 363.368 473.063 361.52C473.402 359.645 473.714 357.542 474.001 355.211C474.287 352.867 474.632 350.387 475.036 347.77L471.95 348.082L471.989 346.52L475.466 345.367C475.661 344.312 475.967 343.16 476.384 341.91C476.813 340.66 477.367 339.475 478.044 338.355C478.734 337.236 479.58 336.318 480.583 335.602C481.598 334.885 482.79 334.527 484.157 334.527C485.069 334.527 485.791 334.671 486.325 334.957C486.859 335.243 487.243 335.582 487.477 335.973C487.712 336.35 487.829 336.695 487.829 337.008ZM515.166 347.242H509.288L506.768 359.801C506.625 360.504 506.801 361.057 507.295 361.461C507.803 361.852 508.396 362.047 509.073 362.047C509.841 362.047 510.622 361.923 511.416 361.676C512.211 361.415 512.816 361.214 513.233 361.07V362.672C513.011 362.763 512.523 362.958 511.768 363.258C511.026 363.557 510.192 363.837 509.268 364.098C508.343 364.358 507.497 364.488 506.729 364.488C505.284 364.488 504.294 364.163 503.76 363.512C503.226 362.848 502.959 362.021 502.959 361.031C502.959 360.771 502.972 360.504 502.998 360.23C503.024 359.957 503.064 359.677 503.116 359.391L505.557 347.242L503.038 347.477V346.168L506.045 344.84L507.998 340.836H510.44L509.639 345.406H515.166V347.242ZM526.745 338.355C526.745 338.941 526.53 339.462 526.101 339.918C525.684 340.374 525.092 340.602 524.323 340.602C523.503 340.602 522.885 340.387 522.468 339.957C522.051 339.514 521.843 338.98 521.843 338.355C521.843 337.835 522.064 337.333 522.507 336.852C522.95 336.37 523.568 336.129 524.362 336.129C525.118 336.129 525.704 336.363 526.12 336.832C526.537 337.288 526.745 337.796 526.745 338.355ZM526.921 362.848C526.726 362.939 526.296 363.121 525.632 363.395C524.981 363.655 524.239 363.902 523.405 364.137C522.585 364.371 521.81 364.488 521.081 364.488C520.17 364.488 519.493 364.293 519.05 363.902C518.62 363.499 518.36 362.997 518.269 362.398C518.178 361.786 518.191 361.174 518.308 360.562L520.866 347.008L517.429 346.637V345.484L523.464 344.234H525.105L522.077 360.23C521.986 360.777 522.084 361.259 522.37 361.676C522.67 362.079 523.093 362.281 523.64 362.281C523.952 362.281 524.33 362.216 524.773 362.086C525.215 361.943 525.639 361.793 526.042 361.637C526.459 361.48 526.752 361.376 526.921 361.324V362.848ZM561.176 362.965C560.499 363.238 559.685 363.564 558.734 363.941C557.784 364.306 556.918 364.488 556.137 364.488C555.056 364.488 554.203 364.247 553.578 363.766C552.953 363.284 552.725 362.587 552.895 361.676L555.102 350.992C555.375 349.651 555.316 348.661 554.926 348.023C554.548 347.372 554.099 347.047 553.578 347.047C552.771 347.047 551.99 347.268 551.234 347.711C550.492 348.154 549.848 348.648 549.301 349.195C548.767 349.742 548.409 350.172 548.227 350.484L545.414 364H541.703L544.379 350.953C544.496 350.38 544.529 349.794 544.477 349.195C544.424 348.583 544.255 348.076 543.969 347.672C543.695 347.255 543.272 347.047 542.699 347.047C542.074 347.047 541.404 347.275 540.688 347.73C539.984 348.173 539.34 348.674 538.754 349.234C538.168 349.781 537.738 350.224 537.465 350.562L534.652 364H530.98L534.418 347.008L531.098 346.637V345.484L537.094 344.234H538.734L537.973 347.926C538.962 346.975 540.069 346.122 541.293 345.367C542.517 344.612 543.721 344.234 544.906 344.234C545.805 344.234 546.495 344.443 546.977 344.859C547.471 345.276 547.823 345.771 548.031 346.344C548.253 346.917 548.396 347.444 548.461 347.926C549.099 347.275 549.828 346.669 550.648 346.109C551.469 345.549 552.322 345.1 553.207 344.762C554.092 344.41 554.939 344.234 555.746 344.234C557.087 344.234 558.07 344.697 558.695 345.621C559.333 346.546 559.496 347.776 559.184 349.312L556.938 360.113C556.82 360.751 556.944 361.279 557.309 361.695C557.686 362.112 558.135 362.32 558.656 362.32C558.982 362.32 559.359 362.242 559.789 362.086C560.219 361.93 560.681 361.767 561.176 361.598V362.965ZM581.192 348.277C581.192 349.371 580.828 350.335 580.098 351.168C579.382 351.988 578.445 352.691 577.286 353.277C576.14 353.85 574.91 354.299 573.595 354.625C572.279 354.938 571.023 355.126 569.825 355.191C569.786 355.452 569.747 355.764 569.708 356.129C569.682 356.493 569.669 356.799 569.669 357.047C569.669 358.505 570.014 359.71 570.704 360.66C571.394 361.611 572.319 362.086 573.477 362.086C574.376 362.086 575.365 361.76 576.446 361.109C577.54 360.445 578.816 359.475 580.274 358.199V360.719C579.779 361.201 579.128 361.734 578.321 362.32C577.514 362.906 576.589 363.414 575.548 363.844C574.506 364.273 573.373 364.488 572.149 364.488C571.537 364.488 570.867 364.391 570.138 364.195C569.408 364 568.712 363.642 568.048 363.121C567.397 362.6 566.856 361.865 566.427 360.914C566.01 359.964 565.802 358.727 565.802 357.203C565.802 355.615 566.075 354.059 566.622 352.535C567.182 350.999 567.95 349.612 568.927 348.375C569.903 347.125 571.023 346.129 572.286 345.387C573.562 344.645 574.916 344.273 576.348 344.273C577.585 344.273 578.555 344.527 579.259 345.035C579.962 345.543 580.457 346.116 580.743 346.754C581.042 347.379 581.192 347.887 581.192 348.277ZM577.638 348.238C577.638 347.717 577.442 347.236 577.052 346.793C576.661 346.35 576.134 346.129 575.47 346.129C574.805 346.129 574.18 346.376 573.595 346.871C573.022 347.353 572.494 347.984 572.013 348.766C571.531 349.547 571.121 350.374 570.782 351.246C570.444 352.105 570.183 352.919 570.001 353.688C570.847 353.609 571.713 353.414 572.598 353.102C573.497 352.789 574.324 352.392 575.079 351.91C575.847 351.415 576.466 350.855 576.934 350.23C577.403 349.605 577.638 348.941 577.638 348.238Z" fill="#E2F6F6"/>
</svg>
