<svg xmlns="http://www.w3.org/2000/svg" xmlns:xlink="http://www.w3.org/1999/xlink" width="500" zoomAndPan="magnify" viewBox="0 0 375 374.999991" height="500" preserveAspectRatio="xMidYMid meet" version="1.0"><defs><filter x="0%" y="0%" width="100%" height="100%" id="853d8437fa"><feColorMatrix values="0 0 0 0 1 0 0 0 0 1 0 0 0 0 1 0 0 0 1 0" color-interpolation-filters="sRGB"/></filter><clipPath id="c4bdd7a7d1"><path d="M 196.136719 208.6875 L 375 208.6875 L 375 375 L 196.136719 375 Z M 196.136719 208.6875 " clip-rule="nonzero"/></clipPath><clipPath id="2f0e7119a1"><path d="M 311.351562 208.6875 C 247.71875 208.6875 196.136719 260.273438 196.136719 323.90625 C 196.136719 387.539062 247.71875 439.121094 311.351562 439.121094 C 374.984375 439.121094 426.566406 387.539062 426.566406 323.90625 C 426.566406 260.273438 374.984375 208.6875 311.351562 208.6875 Z M 311.351562 208.6875 " clip-rule="nonzero"/></clipPath><mask id="377c8860d9"><g filter="url(#853d8437fa)"><rect x="-37.5" width="450" fill="#000000" y="-37.499999" height="449.999989" fill-opacity="0.16"/></g></mask><clipPath id="2c9eccd046"><path d="M 0 0 L 123 0 L 123 81 L 0 81 Z M 0 0 " clip-rule="nonzero"/></clipPath><clipPath id="2e8956ad08"><path d="M 0.488281 90.765625 L -16.523438 -34.082031 L 114.269531 -51.902344 L 131.28125 72.945312 Z M 0.488281 90.765625 " clip-rule="nonzero"/></clipPath><clipPath id="60cd5456fc"><path d="M 0.488281 90.765625 L -16.523438 -34.082031 L 114.269531 -51.902344 L 131.28125 72.945312 Z M 0.488281 90.765625 " clip-rule="nonzero"/></clipPath><clipPath id="61d49d1698"><rect x="0" width="132" y="0" height="91"/></clipPath></defs><rect x="-37.5" width="450" fill="#ffffff" y="-37.499999" height="449.999989" fill-opacity="1"/><rect x="-37.5" width="450" fill="#e9eaec" y="-37.499999" height="449.999989" fill-opacity="1"/><g clip-path="url(#c4bdd7a7d1)"><g clip-path="url(#2f0e7119a1)"><path fill="#000000" d="M 196.136719 208.6875 L 426.566406 208.6875 L 426.566406 439.121094 L 196.136719 439.121094 Z M 196.136719 208.6875 " fill-opacity="1" fill-rule="nonzero"/></g></g><g mask="url(#377c8860d9)"><g transform="matrix(1, 0, 0, 1, 0, 0)"><g clip-path="url(#61d49d1698)"><g clip-path="url(#2c9eccd046)"><g clip-path="url(#2e8956ad08)"><g clip-path="url(#60cd5456fc)"><path fill="#000000" d="M -5.410156 44.285156 C -4.515625 47.6875 -3.019531 50.828125 -0.964844 53.695312 C 1.113281 56.59375 3.554688 59.175781 5.957031 61.796875 C 10.210938 66.441406 13.925781 71.914062 19.472656 75.144531 C 22.246094 76.761719 25.335938 77.558594 28.550781 77.683594 C 31.910156 77.800781 35.25 77.296875 38.574219 76.894531 C 42.105469 76.460938 45.640625 76.160156 49.179688 76.617188 C 52.515625 77.050781 55.761719 78.011719 59.011719 78.886719 C 62.242188 79.761719 65.519531 80.585938 68.886719 80.769531 C 72.390625 80.96875 75.890625 80.40625 79.222656 79.34375 C 85.902344 77.230469 92.007812 73.320312 97.625 69.191406 C 102.597656 65.535156 107.21875 61.363281 111.070312 56.503906 C 114.992188 51.554688 118.046875 45.929688 120 39.933594 C 124.167969 27.125 123.203125 13.398438 121.316406 0.277344 C 120.816406 -3.160156 120.347656 -6.605469 119.761719 -10.035156 C 119.464844 -11.742188 119.085938 -13.4375 118.472656 -15.050781 C 117.878906 -16.601562 117.027344 -18.015625 116.113281 -19.410156 C 112.683594 -24.625 108.085938 -29.007812 102.808594 -32.308594 C 99.796875 -34.203125 96.589844 -35.628906 93.246094 -36.820312 C 89.902344 -38.027344 86.566406 -39.304688 83.207031 -40.492188 C 79.78125 -41.707031 76.296875 -42.714844 72.691406 -43.195312 C 68.980469 -43.695312 65.238281 -43.730469 61.515625 -43.585938 C 57.816406 -43.425781 54.121094 -43.105469 50.425781 -42.765625 C 46.878906 -42.445312 43.316406 -42.09375 39.78125 -41.5625 C 32.742188 -40.503906 25.628906 -38.777344 19.34375 -35.335938 C 14.195312 -32.507812 10.042969 -28.285156 6.871094 -23.386719 C 3.6875 -18.457031 1.402344 -12.988281 -0.671875 -7.515625 C -5.675781 5.703125 -8.109375 20.003906 -6.976562 34.117188 C -6.691406 37.523438 -6.273438 40.960938 -5.410156 44.285156 C -5.300781 44.714844 -4.734375 45 -4.902344 44.363281 C -5.777344 40.972656 -6.175781 37.453125 -6.4375 33.964844 C -6.699219 30.472656 -6.734375 26.953125 -6.566406 23.453125 C -6.234375 16.457031 -5.074219 9.507812 -3.242188 2.753906 C -1.5625 -3.40625 0.675781 -9.480469 3.378906 -15.265625 C 5.761719 -20.386719 8.71875 -25.304688 12.773438 -29.265625 C 17.429688 -33.804688 23.34375 -36.570312 29.523438 -38.386719 C 36.320312 -40.367188 43.40625 -41.199219 50.4375 -41.828125 C 57.648438 -42.480469 64.976562 -43.230469 72.210938 -42.371094 C 79.308594 -41.542969 85.835938 -38.628906 92.515625 -36.257812 C 95.804688 -35.09375 99 -33.78125 102.007812 -32 C 104.71875 -30.375 107.25 -28.480469 109.566406 -26.34375 C 111.851562 -24.214844 113.90625 -21.84375 115.640625 -19.246094 C 116.59375 -17.824219 117.484375 -16.367188 118.082031 -14.765625 C 118.726562 -13.042969 119.078125 -11.210938 119.359375 -9.386719 C 121.378906 3.632812 123.59375 16.972656 121.582031 30.144531 C 120.597656 36.605469 118.554688 42.863281 115.359375 48.570312 C 112.429688 53.796875 108.601562 58.453125 104.214844 62.546875 C 99.523438 66.90625 94.222656 70.695312 88.699219 73.917969 C 82.605469 77.449219 75.785156 80.242188 68.628906 79.832031 C 62.023438 79.464844 55.878906 76.691406 49.375 75.75 C 42.652344 74.773438 36.117188 76.75 29.414062 76.773438 C 26.152344 76.789062 22.976562 76.199219 20.066406 74.667969 C 17.367188 73.242188 15.058594 71.183594 12.964844 68.980469 C 10.730469 66.617188 8.71875 64.058594 6.527344 61.636719 C 4.164062 59.042969 1.707031 56.496094 -0.390625 53.667969 C -2.488281 50.839844 -4.03125 47.753906 -4.921875 44.351562 C -5.03125 43.921875 -5.582031 43.632812 -5.410156 44.285156 Z M -5.410156 44.285156 " fill-opacity="1" fill-rule="nonzero"/></g></g></g></g></g></g></svg>