<?xml version="1.0" encoding="UTF-8"?>
<svg width="400" height="400" viewBox="0 0 400 400" fill="none" xmlns="http://www.w3.org/2000/svg">
    <!-- Watch Case -->
    <path d="M200 80C123.2 80 60 143.2 60 220C60 296.8 123.2 360 200 360C276.8 360 340 296.8 340 220C340 143.2 276.8 80 200 80Z" fill="#B87333"/>
    
    <!-- Bezel Detail -->
    <path d="M200 95C128.8 95 70 153.8 70 225C70 296.2 128.8 355 200 355C271.2 355 330 296.2 330 225C330 153.8 271.2 95 200 95Z" stroke="#8B5E3C" stroke-width="10"/>
    
    <!-- Dial -->
    <circle cx="200" cy="220" r="100" fill="#2D2D2D"/>
    
    <!-- Hour Markers -->
    <g stroke="#B87333" stroke-width="4">
        <line x1="200" y1="130" x2="200" y2="140"/>
        <line x1="270" y1="170" x2="264" y2="176"/>
        <line x1="310" y1="220" x2="300" y2="220"/>
        <line x1="270" y1="270" x2="264" y2="264"/>
        <line x1="200" y1="310" x2="200" y2="300"/>
        <line x1="130" y1="270" x2="136" y2="264"/>
        <line x1="90" y1="220" x2="100" y2="220"/>
        <line x1="130" y1="170" x2="136" y2="176"/>
    </g>
    
    <!-- Hands -->
    <g transform="rotate(45 200 220)">
        <!-- Hour Hand -->
        <path d="M200 220L200 160" stroke="#B87333" stroke-width="8" stroke-linecap="round"/>
        <!-- Minute Hand -->
        <path d="M200 220L240 180" stroke="#B87333" stroke-width="6" stroke-linecap="round"/>
        <!-- Second Hand -->
        <path d="M200 220L200 110" stroke="#FF4444" stroke-width="3" stroke-linecap="round"/>
    </g>
    
    <!-- Crown Detail -->
    <rect x="235" y="200" width="15" height="40" rx="3" fill="#8B5E3C"/>
    
    <!-- Screw Details -->
    <circle cx="150" cy="150" r="4" fill="#8B5E3C"/>
    <circle cx="250" cy="150" r="4" fill="#8B5E3C"/>
    <circle cx="250" cy="290" r="4" fill="#8B5E3C"/>
    <circle cx="150" cy="290" r="4" fill="#8B5E3C"/>
    
    <!-- Band Connection -->
    <rect x="80" y="220" width="40" height="20" fill="#6B4F32"/>
    <rect x="280" y="220" width="40" height="20" fill="#6B4F32"/>
</svg>