<svg xmlns="http://www.w3.org/2000/svg" xmlns:xlink="http://www.w3.org/1999/xlink" width="1280" zoomAndPan="magnify" viewBox="0 0 960 599.999999" height="800" preserveAspectRatio="xMidYMid meet" version="1.0"><defs><filter x="0%" y="0%" width="100%" height="100%" id="3a29cb7503"><feColorMatrix values="0 0 0 0 1 0 0 0 0 1 0 0 0 0 1 0 0 0 1 0" color-interpolation-filters="sRGB"/></filter><mask id="22a5217502"><g filter="url(#3a29cb7503)"><rect x="-96" width="1152" fill="#000000" y="-60" height="719.999999" fill-opacity="0.42"/></g></mask><clipPath id="ce9f1f2811"><path d="M 1 0.691406 L 215 0.691406 L 215 189 L 1 189 Z M 1 0.691406 " clip-rule="nonzero"/></clipPath><clipPath id="3eea4c2f1e"><rect x="0" width="215" y="0" height="189"/></clipPath></defs><rect x="-96" width="1152" fill="#ffffff" y="-60" height="719.999999" fill-opacity="1"/><rect x="-96" width="1152" fill="#000000" y="-60" height="719.999999" fill-opacity="1"/><g mask="url(#22a5217502)"><g transform="matrix(1, 0, 0, 1, 745, 411)"><g clip-path="url(#3eea4c2f1e)"><g clip-path="url(#ce9f1f2811)"><path fill="#ffffff" d="M 120.160156 146.730469 L 94.1875 176.6875 L 1.109375 84.667969 L 58.515625 84.667969 Z M 329.773438 84.667969 L 256.21875 169.273438 L 200.089844 113.160156 L 121.347656 203.542969 L 149.917969 231.785156 L 200.941406 172.671875 L 257.496094 228.367188 L 384.613281 84.667969 Z M 196.367188 0.691406 L 118.460938 88.910156 L 146.621094 118.035156 L 197.972656 57.765625 L 255.046875 114.84375 L 281.519531 84.660156 Z M 196.367188 0.691406 " fill-opacity="1" fill-rule="nonzero"/></g></g></g></g></svg>