<?xml version="1.0" encoding="UTF-8"?>
<svg width="400" height="400" viewBox="0 0 400 400" fill="none" xmlns="http://www.w3.org/2000/svg">
    <!-- Rose Gold Case -->
    <path d="M200 80C123.2 80 60 143.2 60 220C60 296.8 123.2 360 200 360C276.8 360 340 296.8 340 220C340 143.2 276.8 80 200 80Z" fill="#B76E79"/>
    
    <!-- Detailed Bezel -->
    <path d="M200 95C128.8 95 70 153.8 70 225C70 296.2 128.8 355 200 355C271.2 355 330 296.2 330 225C330 153.8 271.2 95 200 95Z" stroke="#9A5B66" stroke-width="10"/>
    
    <!-- Ivory Dial -->
    <circle cx="200" cy="220" r="100" fill="#F5F5DC"/>
    
    <!-- Roman Numerals -->
    <g fill="#5A4A42" font-size="24" font-family="serif">
        <text x="200" y="140" text-anchor="middle">XII</text>
        <text x="280" y="180" text-anchor="middle">II</text>
        <text x="300" y="220" text-anchor="middle">III</text>
        <text x="280" y="260" text-anchor="middle">IV</text>
    </g>
    
    <!-- Blue Hands -->
    <g transform="rotate(45 200 220)">
        <path d="M200 220L200 160" stroke="#2F4F4F" stroke-width="8" stroke-linecap="round"/>
        <path d="M200 220L240 180" stroke="#2F4F4F" stroke-width="6" stroke-linecap="round"/>
        <path d="M200 220L200 110" stroke="#800000" stroke-width="3" stroke-linecap="round"/>
    </g>
    
    <!-- Embossed Crown -->
    <rect x="235" y="200" width="15" height="40" rx="3" fill="#9A5B66"/>
    
    <!-- Leather Band -->
    <path d="M80 220h40v20H80zm200 0h40v20h-40z" fill="#6B4F32"/>
    <!-- Stitching -->
    <path d="M100 230h20M120 230h20" stroke="#8B4513" stroke-width="2"/>
</svg>